<?xml version="1.0" encoding="UTF-8"?>
<svg id="_图层_1" data-name="图层 1" xmlns="http://www.w3.org/2000/svg" viewBox="0 0 955.47 228.34">
  <defs>
    <style>
      .cls-1 {
        fill: #c10230;
      }
    </style>
  </defs>
  <g>
    <polygon class="cls-1" points="419.94 57.87 392.34 100.4 364.73 57.87 337.31 57.87 337.31 165.05 364.49 165.05 364.49 101.59 392.34 144.3 392.34 144.3 392.34 144.3 420.19 101.59 420.19 165.05 447.36 165.05 447.36 57.87 419.94 57.87"/>
    <polygon class="cls-1" points="928.3 57.87 928.3 113.83 891.52 57.87 891.28 57.87 864.1 57.87 864.1 165.05 891.28 165.05 891.28 107.95 927.04 165.05 928.3 165.05 955.47 165.05 955.47 57.87 928.3 57.87"/>
    <polygon class="cls-1" points="817.18 57.87 789.86 57.87 789.5 57.87 752.15 165.05 780.86 165.05 803.52 100.9 826.18 165.05 854.89 165.05 817.54 57.87 817.18 57.87"/>
    <polygon class="cls-1" points="569.75 84.93 592.94 84.93 592.94 165.05 619.98 165.05 619.98 84.93 643.17 84.93 643.17 57.89 569.75 57.89 569.75 84.93"/>
    <path class="cls-1" d="M512.02,54.95c-31.28,0-56.73,25.45-56.73,56.73s25.45,56.73,56.73,56.73,56.73-25.45,56.73-56.73-25.45-56.73-56.73-56.73Zm0,86.41c-16.37,0-29.68-13.32-29.68-29.68s13.32-29.68,29.68-29.68,29.68,13.32,29.68,29.68-13.32,29.68-29.68,29.68Z"/>
    <rect class="cls-1" x="655.11" y="57.72" width="27.05" height="107.33"/>
    <path class="cls-1" d="M736.86,104.99c-1.12-1-2.71-2.35-4.76-4.06-5.12-4.16-9.79-8.14-9.37-12.58,1.23-12.86,19.76-6.67,24.45-3.42v-27.2c-2.73-.95-5.58-1.65-8.53-2.1-2.95-.45-6.11-.68-9.48-.68-10.69,0-19.4,3.18-26.14,9.54-6.74,6.36-10.1,14.48-10.1,24.34,0,4.81,.9,9.29,2.71,13.45,1.81,4.16,5.86,9.18,10.34,12.61,8.82,6.75,12.04,8.99,12.04,15.28,0,3-1.47,5.82-3.28,7.63-5.18,5.18-16.75,3.57-20.28,1.42v27.54c2.18,.45,7.95,1.65,14.94,1.65,12.59,0,22.44-3.13,29.54-9.39,7.1-6.26,10.65-14.88,10.65-25.85,0-5.46-1.09-10.59-3.26-15.4-2.17-4.81-5.33-9.07-9.48-12.77Z"/>
  </g>
  <g>
    <polygon class="cls-1" points="0 228.34 60.92 170.44 60.92 73.1 0 73.1 0 228.34"/>
    <polygon class="cls-1" points="0 57.9 76.11 57.9 76.11 228.34 137.03 228.34 137.03 0 60.92 0 0 57.9"/>
    <polygon class="cls-1" points="152.23 228.34 213.14 170.44 213.14 73.1 152.23 73.1 152.23 228.34"/>
    <polygon class="cls-1" points="213.14 0 152.23 57.9 228.34 57.9 228.34 228.34 228.34 228.34 289.26 170.44 289.26 0 213.14 0"/>
  </g>
</svg>